<svg width="32" height="32" viewBox="0 0 32 32" fill="none" xmlns="http://www.w3.org/2000/svg">
<path d="M23.68 24.32H8.31999C7.23199 24.32 6.39999 23.488 6.39999 22.4V8.31999C6.39999 7.23199 7.10399 6.39999 7.99999 6.39999H8.95999V7.67999H7.99999C7.87199 7.67999 7.67999 7.93599 7.67999 8.31999V22.4C7.67999 22.784 7.93599 23.04 8.31999 23.04H23.68C24.064 23.04 24.32 22.784 24.32 22.4V8.31999C24.32 7.93599 24.128 7.67999 24 7.67999H23.04V6.39999H24C24.896 6.39999 25.6 7.23199 25.6 8.31999V22.4C25.6 23.488 24.768 24.32 23.68 24.32Z" fill="#015389"/>
<path d="M10.88 8.96C10.496 8.96 10.24 8.704 10.24 8.32V5.76C10.24 5.376 10.496 5.12 10.88 5.12C11.264 5.12 11.52 5.376 11.52 5.76V8.32C11.52 8.704 11.264 8.96 10.88 8.96Z" fill="#015389"/>
<path d="M21.12 8.96C20.736 8.96 20.48 8.704 20.48 8.32V5.76C20.48 5.376 20.736 5.12 21.12 5.12C21.504 5.12 21.76 5.376 21.76 5.76V8.32C21.76 8.704 21.504 8.96 21.12 8.96Z" fill="#015389"/>
<path d="M12.8 6.39999H19.2V7.67999H12.8V6.39999Z" fill="#015389"/>
<path d="M7.67999 10.24H24.32V11.52H7.67999V10.24Z" fill="#015389"/>
<path d="M21.76 12.8H23.04V14.08H21.76V12.8Z" fill="#015389"/>
<path d="M19.2 12.8H20.48V14.08H19.2V12.8Z" fill="#015389"/>
<path d="M16.64 12.8H17.92V14.08H16.64V12.8Z" fill="#015389"/>
<path d="M14.08 12.8H15.36V14.08H14.08V12.8Z" fill="#015389"/>
<path d="M11.52 12.8H12.8V14.08H11.52V12.8Z" fill="#015389"/>
<path d="M21.76 15.36H23.04V16.64H21.76V15.36Z" fill="#015389"/>
<path d="M19.2 15.36H20.48V16.64H19.2V15.36Z" fill="#015389"/>
<path d="M16.64 15.36H17.92V16.64H16.64V15.36Z" fill="#015389"/>
<path d="M14.08 15.36H15.36V16.64H14.08V15.36Z" fill="#015389"/>
<path d="M11.52 15.36H12.8V16.64H11.52V15.36Z" fill="#015389"/>
<path d="M8.95999 15.36H10.24V16.64H8.95999V15.36Z" fill="#015389"/>
<path d="M21.76 17.92H23.04V19.2H21.76V17.92Z" fill="#015389"/>
<path d="M19.2 17.92H20.48V19.2H19.2V17.92Z" fill="#015389"/>
<path d="M16.64 17.92H17.92V19.2H16.64V17.92Z" fill="#015389"/>
<path d="M14.08 17.92H15.36V19.2H14.08V17.92Z" fill="#015389"/>
<path d="M11.52 17.92H12.8V19.2H11.52V17.92Z" fill="#015389"/>
<path d="M8.95999 17.92H10.24V19.2H8.95999V17.92Z" fill="#015389"/>
<path d="M19.2 20.48H20.48V21.76H19.2V20.48Z" fill="#015389"/>
<path d="M16.64 20.48H17.92V21.76H16.64V20.48Z" fill="#015389"/>
<path d="M14.08 20.48H15.36V21.76H14.08V20.48Z" fill="#015389"/>
<path d="M11.52 20.48H12.8V21.76H11.52V20.48Z" fill="#015389"/>
<path d="M8.95999 20.48H10.24V21.76H8.95999V20.48Z" fill="#015389"/>
</svg>
